<svg width="22" height="22" viewBox="0 0 22 22" xmlns="http://www.w3.org/2000/svg">
    <path d="M5.20019 6.16689C4.93327 5.89996 4.93327 5.46719 5.20019 5.20027C5.46712 4.93334 5.89989 4.93334 6.16682 5.20027L11 10.0334L15.8332 5.20019C16.1001 4.93327 16.5329 4.93327 16.7998 5.20019C17.0667 5.46712 17.0667 5.89989 16.7998 6.16682L11.9666 11L16.7997 15.8331C17.0666 16.1001 17.0666 16.5328 16.7997 16.7998C16.5328 17.0667 16.1 17.0667 15.8331 16.7998L11 11.9667L6.16692 16.7997C5.9 17.0666 5.46722 17.0666 5.2003 16.7997C4.93337 16.5328 4.93337 16.1 5.2003 15.8331L10.0333 11L5.20019 6.16689Z"/>
</svg>
