<svg width="0" height="0"><symbol xmlns="http://www.w3.org/2000/svg" id="arrow-down" viewBox="0 0 24 24"><path d="M18.05 17.79a1 1 0 0 0-1.42 0L13 21.42V1a1 1 0 0 0-1-1 1 1 0 0 0-1 1v20.41l-3.62-3.62A1 1 0 1 0 6 19.2l3.92 3.92a3 3 0 0 0 4.24 0l3.92-3.92a1 1 0 0 0-.03-1.41Z"/></symbol><symbol xmlns="http://www.w3.org/2000/svg" id="bookmark" viewBox="0 0 24 24"><path d="M20.137 24a2.8 2.8 0 0 1-1.987-.835L12 17.051l-6.15 6.118a2.8 2.8 0 0 1-3.095.609A2.8 2.8 0 0 1 1 21.154V5a5 5 0 0 1 5-5h12a5 5 0 0 1 5 5v16.154a2.8 2.8 0 0 1-1.751 2.624 2.867 2.867 0 0 1-1.112.222ZM6 2a3 3 0 0 0-3 3v16.154a.843.843 0 0 0 1.437.6l6.863-6.821a1 1 0 0 1 1.41 0l6.855 6.819a.843.843 0 0 0 1.437-.6V5a3 3 0 0 0-3-3Z"/></symbol><symbol xmlns="http://www.w3.org/2000/svg" id="burger" fill="none" viewBox="0 0 24 24"><path stroke="currentColor" stroke-linecap="round" stroke-width="2" d="M4 18h16M4 12h16M4 6h16"/></symbol><symbol xmlns="http://www.w3.org/2000/svg" id="cart" viewBox="0 0 21 21"><path d="M12.116 16.566a1 1 0 0 0 1-1v-2a1 1 0 1 0-2 0v2a1 1 0 0 0 1 1Zm-4 0a1 1 0 0 0 1-1v-2a1 1 0 1 0-2 0v2a1 1 0 0 0 1 1Zm9-12h-1.38l-1.73-3.45a.999.999 0 1 0-1.78.9l1.27 2.55h-6.76l1.27-2.55a1 1 0 0 0-1.78-.9l-1.73 3.45h-1.38a3 3 0 0 0-.92 5.84l.74 7.46a3 3 0 0 0 3 2.7h8.38a3 3 0 0 0 3-2.7l.74-7.46a3 3 0 0 0-.94-5.84Zm-1.81 13.1a1 1 0 0 1-1 .9h-8.38a1 1 0 0 1-1-.9l-.71-7.1h11.8l-.71 7.1Zm1.81-9.1h-14a1 1 0 0 1 0-2h14a1 1 0 1 1 0 2Z"/></symbol><symbol xmlns="http://www.w3.org/2000/svg" id="close" viewBox="0 0 22 22"><path d="M5.2 6.167a.684.684 0 0 1 .967-.967L11 10.033 15.833 5.2a.683.683 0 1 1 .967.967L11.967 11l4.833 4.833a.684.684 0 0 1-.967.967L11 11.967 6.167 16.8a.684.684 0 0 1-.967-.967L10.033 11 5.2 6.167Z"/></symbol><symbol xmlns="http://www.w3.org/2000/svg" id="curier" viewBox="0 0 22 27"><path d="M10.069.118a2.16 2.16 0 0 0-.994.606c-.29.3-.456.586-.572.982-.11.373-.112.94-.006 1.293.269.917.972 1.54 1.884 1.67.413.06.903-.042 1.306-.271.744-.423 1.2-1.29 1.147-2.171-.062-1.009-.728-1.85-1.659-2.106a2.34 2.34 0 0 0-1.106-.003ZM2.431 3.631a.86.86 0 0 0-.465.403c-.088.17-.07.072-.544 2.927-.131.783-.284 1.71-.344 2.06-.125.72-.131.914-.05 1.1.16.37.335.472 1.019.603.765.14 1.75.324 1.969.36.103.016.756.137 1.453.265.697.131 1.343.236 1.437.236.3 0 .619-.223.735-.511.025-.059.15-.743.278-1.526l.315-1.883c.041-.252.135-.799.204-1.211.2-1.182.196-1.316-.032-1.621-.15-.2-.347-.278-.984-.393-.31-.052-.844-.15-1.188-.213-3.818-.704-3.584-.668-3.803-.596Z"/><path d="M9.647 4.869c-.281.069-.681.373-.831.632-.041.069-.11.393-.204.97L8.36 7.982c-.059.357-.159.94-.218 1.293-.282 1.69-.297 1.782-.375 1.942-.072.15-.079.193-.079.662 0 1.047.129 1.578.472 1.941l.153.167-.059.324c-.034.18-.14.783-.237 1.343a32.708 32.708 0 0 1-.213 1.143c-.031.114-.122.203-.678.684l-2.019 1.742c-.756.655-1.425 1.247-1.481 1.313a1.56 1.56 0 0 0-.184.308c-.072.157-.082.223-.082.524 0 .308.01.363.085.524.284.605.894.887 1.497.687.24-.078.24-.078 1.693-1.336a218.26 218.26 0 0 1 1.26-1.087 73.22 73.22 0 0 0 1.953-1.716c.05-.055.128-.176.172-.271.081-.174.094-.24.65-3.4.35-1.983.353-1.997.444-2.18.243-.508.306-.96.34-2.456l.019-.835-1.081-1.074c-.597-.592-1.125-1.136-1.175-1.208-.216-.311-.238-.743-.063-1.12.188-.396.525-.609.966-.609.356 0 .518.095 1.069.642.246.246.456.429.462.41.025-.073-.094-.528-.184-.715-.178-.376-.557-.645-1.041-.743-.266-.052-.594-.059-.778-.013Z"/><path d="M9.803 5.51c-.466.168-.722.77-.525 1.239.088.21.103.225.784.897.335.33.857.848 1.157 1.149 1.244 1.241 1.353 1.333 1.662 1.366.319.032.447-.033 1.04-.538.295-.245.8-.674 1.126-.95l.594-.503.037.14c.019.079.106.488.19.91l.3 1.451c.132.639.138.688.095.763a.389.389 0 0 0-.05.184c0 .059.206 1.103.456 2.318.253 1.215.543 2.626.65 3.133l.19.927-.822 1.71c-.453.942-.83 1.725-.843 1.745-.013.016-.344.7-.735 1.512l-.709 1.484-1.081.003c-.597 0-1.257.003-1.466.006a6.37 6.37 0 0 1-.384 0 .69.69 0 0 1 .122-.088c.184-.124.343-.308.447-.524.103-.213.071-.003.65-4.29.246-1.84.246-1.699.043-2.403l-.472-1.594c-.197-.668-.478-1.615-.622-2.11a38.817 38.817 0 0 0-.274-.91c-.007-.006-.047.05-.091.128-.05.092-.1.272-.14.518-.038.206-.135.766-.223 1.244-.084.478-.234 1.316-.33 1.866l-.216 1.215c-.032.177-.032.24.003.367.046.164.03.285-.479 4.001-.093.685-.168 1.326-.168 1.428 0 .206.081.481.197.671.087.147.3.36.415.413.04.02.075.045.075.055 0 .01-.89.02-1.978.02-1.844 0-1.981.003-2.078.059a.466.466 0 0 0-.128.684c.056.076.14.138.21.157.08.027 1.518.033 4.693.027l4.578-.01.694-1.44c.384-.793.903-1.87 1.156-2.398.253-.527.472-.946.481-.933.02.02.172.743.363 1.693.294 1.473.606 2.91.637 2.95.075.095.22.15.329.131a.366.366 0 0 0 .262-.33c0-.063-.15-.829-.331-1.71a632.654 632.654 0 0 1-.575-2.793l-.797-3.864c-.213-1.025-.472-2.285-.856-4.158-.22-1.055-.222-1.064-.325-1.163l-.107-.098-.275-1.326c-.15-.73-.306-1.48-.343-1.67l-.075-.34.14-.148c.225-.229.278-.363.278-.69 0-.322-.053-.46-.256-.662-.253-.259-.65-.337-.956-.197-.081.036-.578.436-1.106.881-.532.449-.982.825-1 .842-.029.013-.447-.38-1.222-1.15-.794-.789-1.232-1.198-1.332-1.25a.92.92 0 0 0-.684-.046Z"/><path d="M6.037 22.908c-.7.196-1.271.805-1.428 1.519a2.38 2.38 0 0 0 .11 1.346 2.061 2.061 0 0 0 1.36 1.182c.318.078.833.049 1.115-.06.522-.202.968-.634 1.16-1.116l.05-.12H6.418l-.172-.092a.644.644 0 0 1-.272-.253c-.1-.154-.106-.177-.094-.412.013-.302.103-.468.328-.61l.15-.09 1.025-.01 1.022-.01-.115-.233a2.025 2.025 0 0 0-1.085-.982 2.01 2.01 0 0 0-1.169-.06Zm13.432-.033c0 .016.1.51.218 1.1l.222 1.068-.05.173c-.143.524-.84.593-1.072.111-.037-.085-.156-.58-.274-1.175a69.05 69.05 0 0 0-.22-1.045c-.021-.026-.337.246-.509.442a2.213 2.213 0 0 0-.459.914c-.066.298-.047.799.047 1.097a2.03 2.03 0 0 0 1.01 1.221c.34.174.521.22.89.22.344 0 .616-.07.928-.24.481-.261.866-.775 1.003-1.348.106-.44.031-1.052-.178-1.467a2.53 2.53 0 0 0-.74-.81c-.288-.176-.816-.346-.816-.261Z"/></symbol><symbol xmlns="http://www.w3.org/2000/svg" id="info" viewBox="0 0 24 24"><path d="M12 0a12 12 0 1 0 12 12A12.013 12.013 0 0 0 12 0Zm0 22a10 10 0 1 1 10-10 10.011 10.011 0 0 1-10 10Z"/><path d="M12 10h-1a1 1 0 0 0 0 2h1v6a1 1 0 0 0 2 0v-6a2 2 0 0 0-2-2Z"/><circle cx="12" cy="6.5" r="1.5"/></symbol><symbol xmlns="http://www.w3.org/2000/svg" id="inst" fill="none" viewBox="0 0 18 18"><g clip-path="url(#a)"><path fill="currentColor" d="M11.99 9a2.953 2.953 0 0 0-.878-2.118 2.949 2.949 0 0 0-2.106-.875 2.948 2.948 0 0 0-2.118.874 2.95 2.95 0 0 0-.873 2.118 2.95 2.95 0 0 0 2.987 2.988 2.947 2.947 0 0 0 2.106-.874 2.948 2.948 0 0 0 .877-2.118L11.99 9Zm1.626 0a4.636 4.636 0 0 1-1.356 3.266 4.633 4.633 0 0 1-3.258 1.352 4.634 4.634 0 0 1-3.265-1.355A4.636 4.636 0 0 1 4.38 8.997 4.633 4.633 0 0 1 9 4.375a4.634 4.634 0 0 1 3.265 1.355 4.636 4.636 0 0 1 1.353 3.266L13.616 9Zm1.263-4.798c-.002.286-.115.56-.316.764a1.034 1.034 0 0 1-.763.3 1.034 1.034 0 0 1-1.065-1.064 1.036 1.036 0 0 1 .652-.994 1.04 1.04 0 0 1 .413-.071 1.034 1.034 0 0 1 .763.301c.2.204.313.477.316.763ZM9.002 1.629a90.223 90.223 0 0 0-2.7 0 8.447 8.447 0 0 0-2.6.362c-.192.076-.377.17-.552.281a2.875 2.875 0 0 0-.482.392 2.876 2.876 0 0 0-.392.482c-.111.175-.205.36-.281.552a8.453 8.453 0 0 0-.362 2.6A194.247 194.247 0 0 0 1.61 9c0 .724.007 1.624.02 2.701-.015.882.108 1.76.365 2.603a2.876 2.876 0 0 0 .673 1.034 2.885 2.885 0 0 0 1.034.673c.842.256 1.72.378 2.6.362 1.076.014 1.976.02 2.7.02.723 0 1.623-.006 2.7-.02a8.447 8.447 0 0 0 2.6-.361c.192-.076.376-.17.551-.281a2.87 2.87 0 0 0 .482-.392c.148-.146.28-.308.392-.483.111-.175.205-.36.281-.552.256-.842.377-1.72.362-2.6.013-1.077.02-1.977.02-2.7 0-.724-.007-1.626-.021-2.706a8.454 8.454 0 0 0-.362-2.6 3.29 3.29 0 0 0-.28-.552 2.878 2.878 0 0 0-.393-.482 2.876 2.876 0 0 0-.482-.392 3.28 3.28 0 0 0-.552-.281 8.447 8.447 0 0 0-2.6-.362 90.133 90.133 0 0 0-2.698 0Zm8.994 7.374a69.305 69.305 0 0 1-.06 3.715 7.077 7.077 0 0 1-.361 2.028 4.474 4.474 0 0 1-1.104 1.723 4.473 4.473 0 0 1-1.727 1.1 7.067 7.067 0 0 1-2.028.362 62.706 62.706 0 0 1-3.714.06 65.182 65.182 0 0 1-3.715-.055 7.07 7.07 0 0 1-2.027-.366 4.472 4.472 0 0 1-1.73-1.1 4.473 4.473 0 0 1-1.105-1.727 7.074 7.074 0 0 1-.36-2.028A67.72 67.72 0 0 1 .004 9C-.01 7.768.01 6.53.064 5.286a7.07 7.07 0 0 1 .36-2.028A4.474 4.474 0 0 1 1.53 1.53 4.473 4.473 0 0 1 3.255.426 7.07 7.07 0 0 1 5.283.065a69.173 69.173 0 0 1 3.713-.06 69.91 69.91 0 0 1 3.714.06 7.06 7.06 0 0 1 2.027.361c.652.23 1.242.607 1.723 1.103a4.474 4.474 0 0 1 1.104 1.727c.219.655.34 1.338.361 2.028a67.02 67.02 0 0 1 .062 3.715l.009.004Z" opacity=".5"/></g><defs><clipPath id="a"><path fill="currentColor" d="M0 0h18v18H0z"/></clipPath></defs></symbol><symbol xmlns="http://www.w3.org/2000/svg" id="lock" viewBox="0 0 24 24"><path d="M19 8V7A7 7 0 0 0 5 7v1H2v13a3 3 0 0 0 3 3h14a3 3 0 0 0 3-3V8ZM7 7a5 5 0 0 1 10 0v1H7Zm13 14a1 1 0 0 1-1 1H5a1 1 0 0 1-1-1V10h16Z"/><path d="M11 14h2v4h-2z"/></symbol><symbol xmlns="http://www.w3.org/2000/svg" id="marker" fill="none" viewBox="0 0 16 16"><path stroke="currentColor" stroke-width="1.5" d="M8 8.953a2.08 2.08 0 1 0 0-4.16 2.08 2.08 0 0 0 0 4.16Z"/><path stroke="currentColor" stroke-width="1.5" d="M2.413 5.66c1.314-5.773 9.867-5.767 11.174.007.766 3.386-1.34 6.253-3.187 8.026a3.462 3.462 0 0 1-4.807 0c-1.84-1.773-3.946-4.646-3.18-8.033Z"/></symbol><symbol xmlns="http://www.w3.org/2000/svg" id="plus" viewBox="0 0 24 24"><path d="M17 11h-4V7a1 1 0 0 0-1-1 1 1 0 0 0-1 1v4H7a1 1 0 0 0-1 1 1 1 0 0 0 1 1h4v4a1 1 0 0 0 1 1 1 1 0 0 0 1-1v-4h4a1 1 0 0 0 1-1 1 1 0 0 0-1-1Z"/></symbol><symbol xmlns="http://www.w3.org/2000/svg" id="shipping" viewBox="0 0 24 24"><path d="M18.682 5h-1.853a5.333 5.333 0 0 0-2.513-3.303 1.499 1.499 0 1 0-1.486 2.605 2.328 2.328 0 0 1 1.171 2.016V17H4.363A1.365 1.365 0 0 1 3 15.636V14h1.5a1.5 1.5 0 1 0 0-3h-3A1.5 1.5 0 0 0 0 12.5v3.136c0 1.935 1.273 3.56 3.02 4.13-.006.078-.02.154-.02.233a3 3 0 1 0 6 0h6a3 3 0 1 0 6 0c0-.08-.014-.156-.02-.233 1.746-.57 3.02-2.196 3.02-4.13v-5.363C24 7.365 21.614 5 18.682 5ZM21 10.273V11h-4V8h1.682c1.3 0 2.318.999 2.318 2.273ZM19.637 17H17v-3h4v1.636c0 .752-.611 1.364-1.363 1.364ZM0 2.5A1.5 1.5 0 0 1 1.5 1h7a1.5 1.5 0 1 1 0 3h-7A1.5 1.5 0 0 1 0 2.5Zm0 5A1.5 1.5 0 0 1 1.5 6h5a1.5 1.5 0 1 1 0 3h-5A1.5 1.5 0 0 1 0 7.5Z"/></symbol><symbol xmlns="http://www.w3.org/2000/svg" id="test" viewBox="0 0 512 512"><path d="m239.1 6.3-208 78c-18.7 7-31.1 25-31.1 45v225.1c0 18.2 10.3 34.8 26.5 42.9l208 104c13.5 6.8 29.4 6.8 42.9 0l208-104c16.3-8.1 26.5-24.8 26.5-42.9V129.3c0-20-12.4-37.9-31.1-44.9l-208-78C262 2.2 250 2.2 239.1 6.3zM256 68.4l192 72v1.1l-192 78-192-78v-1.1l192-72zm32 356V275.5l160-65v133.9l-160 80z"/></symbol><symbol xmlns="http://www.w3.org/2000/svg" id="twitter" fill="none" viewBox="0 0 18 15"><path fill="currentColor" d="M18 1.782a7.467 7.467 0 0 1-2.121.595A3.82 3.82 0 0 0 17.508.271a7.156 7.156 0 0 1-2.356.92 3.692 3.692 0 0 0-1.199-.876A3.526 3.526 0 0 0 12.46 0a3.586 3.586 0 0 0-1.414.286 3.768 3.768 0 0 0-1.999 2.05c-.186.46-.28.954-.279 1.451 0 .291.031.581.092.866A10.362 10.362 0 0 1 4.59 3.47 10.539 10.539 0 0 1 1.253.686a4.053 4.053 0 0 0-.492 1.911 3.774 3.774 0 0 0 1.636 3.159A3.594 3.594 0 0 1 .72 5.283v.036c.003.88.302 1.733.847 2.414.54.67 1.289 1.13 2.12 1.299a3.333 3.333 0 0 1-1.667.076 3.73 3.73 0 0 0 1.29 1.867 3.7 3.7 0 0 0 2.154.766A7.499 7.499 0 0 1 .872 13.36c-.292 0-.583-.02-.873-.055.826.544 1.723.966 2.663 1.253.973.297 1.983.446 2.997.442 3.411-.132 6.013-1.3 7.806-3.508a11.36 11.36 0 0 0 2.706-7.275c0-.157-.006-.32-.017-.488a7.787 7.787 0 0 0 1.844-1.943L18 1.782Z" opacity=".5"/></symbol><symbol xmlns="http://www.w3.org/2000/svg" id="yt" fill="none" viewBox="0 0 18 13"><path fill="currentColor" d="M17.613 2.048c.188.912.296 1.838.325 2.77.041 1.03.062 1.593.062 1.69 0 .096-.02.66-.062 1.69a16.316 16.316 0 0 1-.325 2.77 2.55 2.55 0 0 1-.587 1.037 2.106 2.106 0 0 1-1.012.602c-1.332.218-2.678.33-4.027.333-1.783.042-2.78.063-2.99.063-.212 0-1.209-.021-2.992-.063a25.259 25.259 0 0 1-4.026-.333 2.105 2.105 0 0 1-1.013-.602 2.55 2.55 0 0 1-.579-1.038 16.314 16.314 0 0 1-.326-2.769C.02 7.168 0 6.604 0 6.508c0-.097.02-.66.062-1.69.03-.932.138-1.858.325-2.77.11-.39.311-.747.588-1.038A2.144 2.144 0 0 1 1.987.417a23.52 23.52 0 0 1 4.026-.35C7.797.023 8.793.002 9.005.002c.21 0 1.208.021 2.99.063a23.52 23.52 0 0 1 4.027.351c.385.099.735.304 1.013.593.275.292.476.648.584 1.038h-.006ZM7.157 9.241l4.704-2.736-4.704-2.748V9.24Z" opacity=".5"/></symbol></svg>