<svg width="0" height="0"><symbol xmlns="http://www.w3.org/2000/svg" id="arrow-down" viewBox="0 0 24 24"><path d="M18.05 17.79a1 1 0 0 0-1.42 0L13 21.42V1a1 1 0 0 0-1-1 1 1 0 0 0-1 1v20.41l-3.62-3.62A1 1 0 1 0 6 19.2l3.92 3.92a3 3 0 0 0 4.24 0l3.92-3.92a1 1 0 0 0-.03-1.41Z"/></symbol><symbol xmlns="http://www.w3.org/2000/svg" id="close" viewBox="0 0 22 22"><path d="M5.2 6.167a.684.684 0 0 1 .967-.967L11 10.033 15.833 5.2a.683.683 0 1 1 .967.967L11.967 11l4.833 4.833a.684.684 0 0 1-.967.967L11 11.967 6.167 16.8a.684.684 0 0 1-.967-.967L10.033 11 5.2 6.167Z"/></symbol><symbol xmlns="http://www.w3.org/2000/svg" id="plus" viewBox="0 0 24 24"><path d="M17 11h-4V7a1 1 0 0 0-1-1 1 1 0 0 0-1 1v4H7a1 1 0 0 0-1 1 1 1 0 0 0 1 1h4v4a1 1 0 0 0 1 1 1 1 0 0 0 1-1v-4h4a1 1 0 0 0 1-1 1 1 0 0 0-1-1Z"/></symbol><symbol xmlns="http://www.w3.org/2000/svg" id="user-circle" fill="none" stroke="currentColor" stroke-linecap="round" stroke-linejoin="round" stroke-width="2" viewBox="0 0 24 24"><path d="M18 20a6 6 0 0 0-12 0"/><circle cx="12" cy="10" r="4"/><circle cx="12" cy="12" r="10"/></symbol></svg>