<svg width="0" height="0"><symbol xmlns="http://www.w3.org/2000/svg" id="arrow-down" viewBox="0 0 24 24"><path d="M18.05 17.79a1 1 0 0 0-1.42 0L13 21.42V1a1 1 0 0 0-1-1 1 1 0 0 0-1 1v20.41l-3.62-3.62A1 1 0 1 0 6 19.2l3.92 3.92a3 3 0 0 0 4.24 0l3.92-3.92a1 1 0 0 0-.03-1.41Z"/></symbol><symbol xmlns="http://www.w3.org/2000/svg" id="close" viewBox="0 0 22 22"><path d="M5.2 6.167a.684.684 0 0 1 .967-.967L11 10.033 15.833 5.2a.683.683 0 1 1 .967.967L11.967 11l4.833 4.833a.684.684 0 0 1-.967.967L11 11.967 6.167 16.8a.684.684 0 0 1-.967-.967L10.033 11 5.2 6.167Z"/></symbol><symbol xmlns="http://www.w3.org/2000/svg" id="logout" fill="currentColor" aria-hidden="true" viewBox="0 0 20 20"><path fill-rule="evenodd" d="M14.78 7.47a.75.75 0 0 1 0 1.06l-2.5 2.5a.75.75 0 1 1-1.06-1.06l1.22-1.22H4.75a.75.75 0 0 1 0-1.5h7.69l-1.22-1.22a.75.75 0 0 1 1.06-1.06l2.5 2.5ZM9.5 4.25a.75.75 0 0 1-1.5 0V4a1.5 1.5 0 0 0-1.5-1.5H4A1.5 1.5 0 0 0 2.5 4v8A1.5 1.5 0 0 0 4 13.5h2.5A1.5 1.5 0 0 0 8 12v-.25a.75.75 0 0 1 1.5 0V12a3 3 0 0 1-3 3H4a3 3 0 0 1-3-3V4a3 3 0 0 1 3-3h2.5a3 3 0 0 1 3 3v.25Z" clip-rule="evenodd">/</path></symbol><symbol xmlns="http://www.w3.org/2000/svg" id="plus" viewBox="0 0 24 24"><path d="M17 11h-4V7a1 1 0 0 0-1-1 1 1 0 0 0-1 1v4H7a1 1 0 0 0-1 1 1 1 0 0 0 1 1h4v4a1 1 0 0 0 1 1 1 1 0 0 0 1-1v-4h4a1 1 0 0 0 1-1 1 1 0 0 0-1-1Z"/></symbol><symbol xmlns="http://www.w3.org/2000/svg" id="search" fill="none" stroke="currentColor" stroke-linecap="round" stroke-linejoin="round" stroke-width="2" viewBox="0 0 24 24"><circle cx="11" cy="11" r="8"/><path d="m21 21-4.3-4.3"/></symbol><symbol xmlns="http://www.w3.org/2000/svg" id="user-circle" fill="none" stroke="currentColor" stroke-linecap="round" stroke-linejoin="round" stroke-width="2" viewBox="0 0 24 24"><path d="M18 20a6 6 0 0 0-12 0"/><circle cx="12" cy="10" r="4"/><circle cx="12" cy="12" r="10"/></symbol></svg>