<svg width="0" height="0"><symbol xmlns="http://www.w3.org/2000/svg" id="arrow-down" viewBox="0 0 24 24"><path d="M18.05 17.79a1 1 0 0 0-1.42 0L13 21.42V1a1 1 0 0 0-1-1 1 1 0 0 0-1 1v20.41l-3.62-3.62A1 1 0 1 0 6 19.2l3.92 3.92a3 3 0 0 0 4.24 0l3.92-3.92a1 1 0 0 0-.03-1.41Z"/></symbol><symbol xmlns="http://www.w3.org/2000/svg" id="close" viewBox="0 0 22 22"><path d="M5.2 6.167a.684.684 0 0 1 .967-.967L11 10.033 15.833 5.2a.683.683 0 1 1 .967.967L11.967 11l4.833 4.833a.684.684 0 0 1-.967.967L11 11.967 6.167 16.8a.684.684 0 0 1-.967-.967L10.033 11 5.2 6.167Z"/></symbol><symbol xmlns="http://www.w3.org/2000/svg" id="logout" viewBox="0 0 24 24"><path d="M22.829 9.172 18.95 5.293a1 1 0 0 0-1.414 1.414l3.879 3.879a2.057 2.057 0 0 1 .3.39c-.015 0-.027-.008-.042-.008L5.989 11a1 1 0 0 0 0 2l15.678-.032c.028 0 .051-.014.078-.016a2 2 0 0 1-.334.462l-3.879 3.879a1 1 0 1 0 1.414 1.414l3.879-3.879a4 4 0 0 0 0-5.656Z"/><path d="M7 22H5a3 3 0 0 1-3-3V5a3 3 0 0 1 3-3h2a1 1 0 0 0 0-2H5a5.006 5.006 0 0 0-5 5v14a5.006 5.006 0 0 0 5 5h2a1 1 0 0 0 0-2Z"/></symbol><symbol xmlns="http://www.w3.org/2000/svg" id="magnifier-minus" fill="currentColor" aria-hidden="true" viewBox="0 0 16 16"><path fill-rule="evenodd" d="M6.75 11a4.25 4.25 0 1 0 0-8.5 4.25 4.25 0 0 0 0 8.5m0 1.5a5.73 5.73 0 0 0 3.501-1.188l2.719 2.718a.75.75 0 1 0 1.06-1.06l-2.718-2.719A5.75 5.75 0 1 0 6.75 12.5m-2-6.5a.75.75 0 0 0 0 1.5h4a.75.75 0 0 0 0-1.5z" clip-rule="evenodd"/></symbol><symbol xmlns="http://www.w3.org/2000/svg" id="plus" viewBox="0 0 24 24"><path d="M17 11h-4V7a1 1 0 0 0-1-1 1 1 0 0 0-1 1v4H7a1 1 0 0 0-1 1 1 1 0 0 0 1 1h4v4a1 1 0 0 0 1 1 1 1 0 0 0 1-1v-4h4a1 1 0 0 0 1-1 1 1 0 0 0-1-1Z"/></symbol><symbol xmlns="http://www.w3.org/2000/svg" id="search" fill="none" stroke="currentColor" stroke-linecap="round" stroke-linejoin="round" stroke-width="2" viewBox="0 0 24 24"><circle cx="11" cy="11" r="8"/><path d="m21 21-4.3-4.3"/></symbol><symbol xmlns="http://www.w3.org/2000/svg" id="user-circle" fill="none" stroke="currentColor" stroke-linecap="round" stroke-linejoin="round" stroke-width="2" viewBox="0 0 24 24"><path d="M18 20a6 6 0 0 0-12 0"/><circle cx="12" cy="10" r="4"/><circle cx="12" cy="12" r="10"/></symbol></svg>