<svg width="0" height="0"><symbol xmlns="http://www.w3.org/2000/svg" id="arrow-down" viewBox="0 0 24 24"><path d="M18.05 17.79a1 1 0 0 0-1.42 0L13 21.42V1a1 1 0 0 0-1-1 1 1 0 0 0-1 1v20.41l-3.62-3.62A1 1 0 1 0 6 19.2l3.92 3.92a3 3 0 0 0 4.24 0l3.92-3.92a1 1 0 0 0-.03-1.41Z"/></symbol><symbol xmlns="http://www.w3.org/2000/svg" id="close" viewBox="0 0 22 22"><path d="M5.2 6.167a.684.684 0 0 1 .967-.967L11 10.033 15.833 5.2a.683.683 0 1 1 .967.967L11.967 11l4.833 4.833a.684.684 0 0 1-.967.967L11 11.967 6.167 16.8a.684.684 0 0 1-.967-.967L10.033 11 5.2 6.167Z"/></symbol><symbol xmlns="http://www.w3.org/2000/svg" id="logout" viewBox="0 0 24 24"><path d="M11.476 15a1 1 0 0 0-1 1v3a3 3 0 0 1-3 3H5a3 3 0 0 1-3-3V5a3 3 0 0 1 3-3h2.476a3 3 0 0 1 3 3v3a1 1 0 0 0 2 0V5a5.006 5.006 0 0 0-5-5H5a5.006 5.006 0 0 0-5 5v14a5.006 5.006 0 0 0 5 5h2.476a5.006 5.006 0 0 0 5-5v-3a1 1 0 0 0-1-1Z"/><path d="m22.867 9.879-4.586-4.586a1 1 0 1 0-1.414 1.414l4.263 4.263L6 11a1 1 0 0 0 0 2l15.188-.03-4.323 4.323a1 1 0 1 0 1.414 1.414l4.586-4.586a3 3 0 0 0 .002-4.242Z"/></symbol><symbol xmlns="http://www.w3.org/2000/svg" id="plus" viewBox="0 0 24 24"><path d="M17 11h-4V7a1 1 0 0 0-1-1 1 1 0 0 0-1 1v4H7a1 1 0 0 0-1 1 1 1 0 0 0 1 1h4v4a1 1 0 0 0 1 1 1 1 0 0 0 1-1v-4h4a1 1 0 0 0 1-1 1 1 0 0 0-1-1Z"/></symbol><symbol xmlns="http://www.w3.org/2000/svg" id="search" fill="none" stroke="currentColor" stroke-linecap="round" stroke-linejoin="round" stroke-width="2" viewBox="0 0 24 24"><circle cx="11" cy="11" r="8"/><path d="m21 21-4.3-4.3"/></symbol><symbol xmlns="http://www.w3.org/2000/svg" id="user-circle" fill="none" stroke="currentColor" stroke-linecap="round" stroke-linejoin="round" stroke-width="2" viewBox="0 0 24 24"><path d="M18 20a6 6 0 0 0-12 0"/><circle cx="12" cy="10" r="4"/><circle cx="12" cy="12" r="10"/></symbol></svg>