<svg width="0" height="0"><symbol xmlns="http://www.w3.org/2000/svg" id="close" viewBox="0 0 22 22"><path d="M5.2 6.167a.684.684 0 0 1 .967-.967L11 10.033 15.833 5.2a.683.683 0 1 1 .967.967L11.967 11l4.833 4.833a.684.684 0 0 1-.967.967L11 11.967 6.167 16.8a.684.684 0 0 1-.967-.967L10.033 11 5.2 6.167Z"/></symbol><symbol xmlns="http://www.w3.org/2000/svg" id="home" fill="none" viewBox="0 0 25 25"><path fill="currentColor" d="M5.5 22.5h14a2 2 0 0 0 2-2v-9a1 1 0 0 0-.29-.71l-8-8a1 1 0 0 0-1.41 0l-8 8a1 1 0 0 0-.3.71v9a2 2 0 0 0 2 2Zm5-2v-5h4v5h-4Zm-5-8.59 7-7 7 7v8.59h-3v-5a2 2 0 0 0-2-2h-4a2 2 0 0 0-2 2v5h-3v-8.59Z"/></symbol><symbol xmlns="http://www.w3.org/2000/svg" id="logout" viewBox="0 0 24 24"><path d="M22.829 9.172 18.95 5.293a1 1 0 0 0-1.414 1.414l3.879 3.879a2.057 2.057 0 0 1 .3.39c-.015 0-.027-.008-.042-.008L5.989 11a1 1 0 0 0 0 2l15.678-.032c.028 0 .051-.014.078-.016a2 2 0 0 1-.334.462l-3.879 3.879a1 1 0 1 0 1.414 1.414l3.879-3.879a4 4 0 0 0 0-5.656Z"/><path d="M7 22H5a3 3 0 0 1-3-3V5a3 3 0 0 1 3-3h2a1 1 0 0 0 0-2H5a5.006 5.006 0 0 0-5 5v14a5.006 5.006 0 0 0 5 5h2a1 1 0 0 0 0-2Z"/></symbol><symbol xmlns="http://www.w3.org/2000/svg" id="movie" fill="none" viewBox="0 0 24 24"><path fill="currentColor" d="M20.25 3.75H3.75a1.5 1.5 0 0 0-1.5 1.5v13.5a1.5 1.5 0 0 0 1.5 1.5h16.5a1.5 1.5 0 0 0 1.5-1.5V5.25a1.5 1.5 0 0 0-1.5-1.5Zm-16.5 4.5h7.5v7.5h-7.5v-7.5Zm9-1.5v-1.5h3v1.5h-3Zm-1.5 0h-3v-1.5h3v1.5Zm0 10.5v1.5h-3v-1.5h3Zm1.5 0h3v1.5h-3v-1.5Zm0-1.5v-7.5h7.5v7.5h-7.5Zm7.5-9h-3v-1.5h3v1.5Zm-13.5-1.5v1.5h-3v-1.5h3Zm-3 12h3v1.5h-3v-1.5Zm16.5 1.5h-3v-1.5h3v1.5Z"/></symbol><symbol xmlns="http://www.w3.org/2000/svg" id="plus" viewBox="0 0 24 24"><path d="M17 11h-4V7a1 1 0 0 0-1-1 1 1 0 0 0-1 1v4H7a1 1 0 0 0-1 1 1 1 0 0 0 1 1h4v4a1 1 0 0 0 1 1 1 1 0 0 0 1-1v-4h4a1 1 0 0 0 1-1 1 1 0 0 0-1-1Z"/></symbol><symbol xmlns="http://www.w3.org/2000/svg" id="search" fill="none" stroke="currentColor" stroke-linecap="round" stroke-linejoin="round" stroke-width="2" viewBox="0 0 24 24"><circle cx="11" cy="11" r="8"/><path d="m21 21-4.3-4.3"/></symbol><symbol xmlns="http://www.w3.org/2000/svg" id="serial" fill="none" viewBox="0 0 24 25"><path fill="currentColor" d="M19 3.5H5c-1.103 0-2 .897-2 2v14c0 1.103.897 2 2 2h14c1.103 0 2-.897 2-2v-14c0-1.103-.897-2-2-2Zm-10 8v-6h6v6H9Zm6 2v6H9v-6h6Zm-10-8h2v2H5v-2Zm0 4h2v2H5v-2Zm0 4h2v2H5v-2Zm0 4h2v2H5v-2Zm14.002 2H17v-2h2.002v2Zm-.001-4H17v-2h2.001v2Zm0-4H17v-2h2.001v2ZM17 7.5v-2h2v2h-2Z"/></symbol><symbol xmlns="http://www.w3.org/2000/svg" id="tv" viewBox="0 0 512 512"><g id="TV"><g id="TV-2"><path d="M384 175.766H280.924l78.352-78.352-14.219-14.224-87.582 87.577-87.568-87.577-14.224 14.22 78.353 78.352H127.599a33.553 33.553 0 0 0-33.516 33.516v186.016A33.556 33.556 0 0 0 127.6 428.81h256.402a33.556 33.556 0 0 0 33.516-33.516V209.277A33.553 33.553 0 0 0 384 175.766Zm13.401 219.528a13.41 13.41 0 0 1-13.4 13.405H127.599a13.416 13.416 0 0 1-13.4-13.405V209.282a13.418 13.418 0 0 1 13.4-13.405h256.402a13.412 13.412 0 0 1 13.4 13.405Z"/><path d="M134.585 388.313h211.71v-172.05h-211.71Zm20.106-151.94H326.18v131.834H154.69Zm206.117-20.11h19.549v20.111h-19.549zm0 30.308h19.549v20.111h-19.549z"/></g></g></symbol><symbol xmlns="http://www.w3.org/2000/svg" id="user-circle" fill="none" stroke="currentColor" stroke-linecap="round" stroke-linejoin="round" stroke-width="2" viewBox="0 0 24 24"><path d="M18 20a6 6 0 0 0-12 0"/><circle cx="12" cy="10" r="4"/><circle cx="12" cy="12" r="10"/></symbol></svg>